<svg id="Layer_1" data-name="Layer 1" xmlns="http://www.w3.org/2000/svg" viewBox="0 0 380 65"><defs><style>.cls-1{fill:#ec3f7a;}.cls-2{fill:#f369a2;}.cls-3{fill:#f694bd;}</style></defs><path d="M101.09,40.92v-41h8.48V27c3.22-5.72,9.29-8.93,16.44-8.93,11.52,0,22.42,8.3,22.42,23,0,13.85-9.83,23.49-23.85,23.49C110.91,64.5,101.09,55.3,101.09,40.92Zm38.76.36c0-8.93-6.07-15.36-15.18-15.36s-15.1,6.43-15.1,15.36,6.08,15.36,15.1,15.36S139.85,50.21,139.85,41.28Z"/><path d="M157-.07h8.49V63.34H157Z"/><path d="M174.06,41.28c0-13.4,9.83-23.22,23.76-23.22s23.76,9.82,23.76,23.22S211.76,64.5,197.82,64.5,174.06,54.68,174.06,41.28Zm38.95,0c0-8.93-6.08-15.36-15.19-15.36s-15.18,6.43-15.18,15.36,6.07,15.36,15.18,15.36S213,50.21,213,41.28Z"/><path d="M228.55,40.92v-41H237V27c3.22-5.72,9.29-8.93,16.44-8.93,11.52,0,22.42,8.3,22.42,23,0,13.85-9.83,23.49-23.85,23.49C238.37,64.5,228.55,55.3,228.55,40.92Zm38.76.36c0-8.93-6.07-15.36-15.18-15.36S237,32.35,237,41.28s6.08,15.36,15.1,15.36S267.31,50.21,267.31,41.28Z"/><path class="cls-1" d="M288,58c-9.47-9.48-9.47-23.37.38-33.23s23.62-9.72,33.09-.25l2.21,2.21L296.53,53.91c6.44,4.67,13.7,3.6,19.13-1.83,4-4,5.62-8.15,4.74-12.7L327,32.75c3.41,8.21,1.45,17.62-5.81,24.89C311.37,67.49,297.47,67.49,288,58ZM312,27.7c-6.19-3.79-13-2.4-18.06,2.65s-6.32,11.88-2.59,18Z"/><path class="cls-1" d="M335.37,40.39c0-14.74,8.76-22.33,21.8-22.33S379,25.56,379,40.39v23h-8.48v-23c0-9.56-5.27-14.47-13.31-14.47s-13.31,4.91-13.31,14.47v23h-8.49Z"/><path class="cls-2" d="M33.33.06a32.13,32.13,0,0,0-20.7,7.53l5.74,5.73a24.14,24.14,0,0,1,15-5.19,25.56,25.56,0,0,1,2.88.17,24.2,24.2,0,0,1,16.14,39L58.09,53A32.27,32.27,0,0,0,36.18.18Q34.74.06,33.33.06"/><path class="cls-1" d="M46.37,52.74A24.2,24.2,0,0,1,12.94,19.31L7.13,13.5a32.26,32.26,0,0,0,45,45Z"/><path class="cls-3" d="M33.33,36.38a2,2,0,0,1-2-2v-4a2,2,0,0,1,4,0v4a2,2,0,0,1-2,2m0-20.18A16.15,16.15,0,1,0,49.47,32.35,16.15,16.15,0,0,0,33.33,16.2"/></svg>